<mxfile host="app.diagrams.net" modified="2022-02-02T06:37:18.975Z" agent="5.0 (Windows NT 10.0; Win64; x64) AppleWebKit/537.36 (KHTML, like Gecko) Chrome/96.0.4664.110 Safari/537.36 OPR/82.0.4227.50" etag="05gdjX6ZUaBLXZ1c64nl" version="16.5.2" type="github">
  <diagram id="9Y6CaAO9TVKTY00LrX_7" name="Page-1">
    <mxGraphModel dx="1038" dy="540" grid="1" gridSize="10" guides="1" tooltips="1" connect="1" arrows="1" fold="1" page="1" pageScale="1" pageWidth="850" pageHeight="1100" math="0" shadow="0">
      <root>
        <mxCell id="0" />
        <mxCell id="1" parent="0" />
        <mxCell id="qe2jWZ_nReYfbDTBb2L2-1" value="" style="swimlane;startSize=0;fillColor=#FA6800;fontColor=#000000;strokeColor=#C73500;" vertex="1" parent="1">
          <mxGeometry x="210" y="350" width="280" height="370" as="geometry" />
        </mxCell>
        <mxCell id="qe2jWZ_nReYfbDTBb2L2-2" value="" style="swimlane;startSize=0;fillColor=#fad7ac;strokeColor=#b46504;" vertex="1" parent="qe2jWZ_nReYfbDTBb2L2-1">
          <mxGeometry y="320" width="280" height="50" as="geometry">
            <mxRectangle x="260" y="170" width="50" height="40" as="alternateBounds" />
          </mxGeometry>
        </mxCell>
        <mxCell id="qe2jWZ_nReYfbDTBb2L2-3" value="Security (User Authentication)" style="text;html=1;align=center;verticalAlign=middle;resizable=0;points=[];autosize=1;strokeColor=none;fillColor=none;" vertex="1" parent="qe2jWZ_nReYfbDTBb2L2-2">
          <mxGeometry x="55" y="10" width="170" height="20" as="geometry" />
        </mxCell>
        <mxCell id="qe2jWZ_nReYfbDTBb2L2-4" value="" style="swimlane;startSize=0;" vertex="1" parent="qe2jWZ_nReYfbDTBb2L2-1">
          <mxGeometry x="47" y="260" width="186" height="50" as="geometry">
            <mxRectangle x="260" y="170" width="50" height="40" as="alternateBounds" />
          </mxGeometry>
        </mxCell>
        <mxCell id="qe2jWZ_nReYfbDTBb2L2-5" value="Flutter Plugin" style="rounded=1;whiteSpace=wrap;html=1;fillColor=#fad9d5;strokeColor=#ae4132;" vertex="1" parent="qe2jWZ_nReYfbDTBb2L2-4">
          <mxGeometry x="40" y="12.5" width="110" height="27.5" as="geometry" />
        </mxCell>
        <mxCell id="qe2jWZ_nReYfbDTBb2L2-6" value="" style="swimlane;startSize=0;fillColor=#e51400;fontColor=#ffffff;strokeColor=#B20000;" vertex="1" parent="qe2jWZ_nReYfbDTBb2L2-1">
          <mxGeometry x="47" y="50" width="186" height="200" as="geometry">
            <mxRectangle x="260" y="170" width="50" height="40" as="alternateBounds" />
          </mxGeometry>
        </mxCell>
        <mxCell id="qe2jWZ_nReYfbDTBb2L2-7" value="Task" style="rounded=1;whiteSpace=wrap;html=1;fillColor=#647687;fontColor=#ffffff;strokeColor=#314354;" vertex="1" parent="qe2jWZ_nReYfbDTBb2L2-6">
          <mxGeometry x="38" y="80" width="110" height="27.5" as="geometry" />
        </mxCell>
        <mxCell id="qe2jWZ_nReYfbDTBb2L2-8" value="Notes" style="rounded=1;whiteSpace=wrap;html=1;fillColor=#e3c800;fontColor=#000000;strokeColor=#B09500;" vertex="1" parent="qe2jWZ_nReYfbDTBb2L2-6">
          <mxGeometry x="38" y="160" width="110" height="27.5" as="geometry" />
        </mxCell>
        <mxCell id="qe2jWZ_nReYfbDTBb2L2-9" value="Calendar" style="rounded=1;whiteSpace=wrap;html=1;fillColor=#76608a;fontColor=#ffffff;strokeColor=#432D57;" vertex="1" parent="qe2jWZ_nReYfbDTBb2L2-6">
          <mxGeometry x="38" y="120" width="110" height="27.5" as="geometry" />
        </mxCell>
        <mxCell id="qe2jWZ_nReYfbDTBb2L2-10" value="User" style="rounded=1;whiteSpace=wrap;html=1;fillColor=#fa6800;fontColor=#000000;strokeColor=#C73500;" vertex="1" parent="qe2jWZ_nReYfbDTBb2L2-6">
          <mxGeometry x="38" y="40" width="110" height="27.5" as="geometry" />
        </mxCell>
        <mxCell id="qe2jWZ_nReYfbDTBb2L2-11" value="Modules" style="text;html=1;align=center;verticalAlign=middle;resizable=0;points=[];autosize=1;strokeColor=none;fillColor=none;" vertex="1" parent="qe2jWZ_nReYfbDTBb2L2-6">
          <mxGeometry x="63" width="60" height="20" as="geometry" />
        </mxCell>
        <mxCell id="qe2jWZ_nReYfbDTBb2L2-12" value="" style="swimlane;startSize=0;fillColor=#76608a;fontColor=#ffffff;strokeColor=#432D57;" vertex="1" parent="1">
          <mxGeometry x="210" y="720" width="280" height="70" as="geometry">
            <mxRectangle x="260" y="170" width="50" height="40" as="alternateBounds" />
          </mxGeometry>
        </mxCell>
        <mxCell id="qe2jWZ_nReYfbDTBb2L2-13" value="Android" style="rounded=1;whiteSpace=wrap;html=1;fillColor=#b1ddf0;strokeColor=#10739e;" vertex="1" parent="qe2jWZ_nReYfbDTBb2L2-12">
          <mxGeometry x="80" y="12.5" width="120" height="45" as="geometry" />
        </mxCell>
        <mxCell id="qe2jWZ_nReYfbDTBb2L2-14" value="Flutter &lt;br&gt;Framework" style="text;html=1;align=center;verticalAlign=middle;resizable=0;points=[];autosize=1;strokeColor=none;fillColor=none;" vertex="1" parent="1">
          <mxGeometry x="310" y="355" width="80" height="30" as="geometry" />
        </mxCell>
        <mxCell id="qe2jWZ_nReYfbDTBb2L2-15" value="Ashisu Asisstant Mobile Application" style="text;html=1;align=center;verticalAlign=middle;resizable=0;points=[];autosize=1;strokeColor=none;fillColor=none;" vertex="1" parent="1">
          <mxGeometry x="260" y="310" width="200" height="20" as="geometry" />
        </mxCell>
        <mxCell id="qe2jWZ_nReYfbDTBb2L2-22" value="" style="html=1;verticalLabelPosition=bottom;align=center;labelBackgroundColor=#ffffff;verticalAlign=top;strokeWidth=2;strokeColor=#000000;shadow=0;dashed=0;shape=mxgraph.ios7.icons.globe;" vertex="1" parent="1">
          <mxGeometry x="540" y="510" width="30" height="25" as="geometry" />
        </mxCell>
        <mxCell id="qe2jWZ_nReYfbDTBb2L2-23" value="internet" style="text;html=1;align=center;verticalAlign=middle;resizable=0;points=[];autosize=1;strokeColor=none;fillColor=none;" vertex="1" parent="1">
          <mxGeometry x="525" y="540" width="60" height="20" as="geometry" />
        </mxCell>
        <mxCell id="qe2jWZ_nReYfbDTBb2L2-24" value="SDK" style="text;html=1;align=center;verticalAlign=middle;resizable=0;points=[];autosize=1;strokeColor=none;fillColor=none;" vertex="1" parent="1">
          <mxGeometry x="535" y="590" width="40" height="20" as="geometry" />
        </mxCell>
        <mxCell id="qe2jWZ_nReYfbDTBb2L2-37" style="edgeStyle=orthogonalEdgeStyle;rounded=0;orthogonalLoop=1;jettySize=auto;html=1;entryX=0.997;entryY=0.606;entryDx=0;entryDy=0;entryPerimeter=0;startArrow=classic;startFill=1;" edge="1" parent="1" source="qe2jWZ_nReYfbDTBb2L2-25" target="qe2jWZ_nReYfbDTBb2L2-1">
          <mxGeometry relative="1" as="geometry" />
        </mxCell>
        <mxCell id="qe2jWZ_nReYfbDTBb2L2-25" value="" style="shape=cylinder3;whiteSpace=wrap;html=1;boundedLbl=1;backgroundOutline=1;size=15;fillColor=#fff2cc;strokeColor=#d6b656;" vertex="1" parent="1">
          <mxGeometry x="620" y="480" width="150" height="190" as="geometry" />
        </mxCell>
        <mxCell id="qe2jWZ_nReYfbDTBb2L2-32" value="" style="shape=image;verticalLabelPosition=bottom;labelBackgroundColor=default;verticalAlign=top;aspect=fixed;imageAspect=0;image=data:image/png,iVBORw0KGgoAAAANSUhEUgAAATYAAABqCAYAAAA2h32RAAAAAXNSR0IArs4c6QAAAARnQU1BAACxjwv8YQUAAAAJcEhZcwAAFxEAABcRAcom8z8AABySSURBVHhe7Z0JnF1VfcdpbVVgtiRkISEGypJZs6IgtVL8+KhF27rX2larbWlrta1dQEUbVgGRTWQXCGSZmWSyLxYxJS0CSWZIICCBUPSjXVwAQQKzzz39f9/cf3Lmct579715D/LC//v5/D7vzXv3nnPuuff83v8s985hhmEYhmEYhmEYhmEYhmEYhmEYhmEYhmEYhmEYhmEYhmEYhmEYhmEYhmEYhmEYhmEYhmEYhmEYhmEYhmEYhmEYhmEYhmEYAaKNH5wVffc9zfGfhmEY1U20aUFbtP7E56NvnzgcrZ37gfhjwzCM6mV45cxz3XemO7d+motWzvpBtPdzb4q/MgzDqE6iFTNvc5tmONcxzblvH+Oirtl/H39lGIZRnbgV07e69UePGtvqqRK1zfyZu/f0hvhrwzCM6iLa/J43RR3Tf+RWx8bWPlWitulibidcHG9iGIZRXUSdJx0XdRw94FaKqXWIqaGuKS5aNWNftOHUGfFmhmEY1UPUNesMt0aitc7Y1DqmjGozEwnH3RRvZhiGUT24FTPOdpvohiaMbcVkidqmD7r1CxvjTQ3DMKqDqGP6VQeMLTa19smj2ihd0s5ZXfGmhmEY1UHUefQGt4HxtYSpoY6jnFsjXdKNc06JN38F0fq5Z0ZbGrujVY2Xxx8ZhmG8djjnfkWM7XG3Jo7W2n1jE1ND649y0YqZ/x7vMgZ37+k1sv9P3OYG5zZLdLf6pN+NvzIMw3htiNa1To3ap73ILOiYSE1NDXVMEnObKqbV9ArTcitmfcFtku+XibGtbnCS1kOYZfy1YRjGq0+0cubJrkuitc5ApJaVmBZaO8lFHTN2LXLuV+NdD4seOHNi1Dn1WbdSTA1jQ+tlu5XHfzTexDAM49UnWjH9Y26DGFs+U0PLJ45OJKw86U/iXcUU3/LVbLS21DO2VfVigFP2uJ6zfz3eLBXDO8/6TLTnrMujnR+eHH9kGIZRGmJsi9xGNbY8poZWTRDTmvZ0dr/N75gcdU7Z5zrrY1PjNdaGCW6489i/zGaQgpFdma+7H5/m3HOnuajnlBvjjw3DMEpDjGqZ20A3NIep+ca2bIJz6ya64ZWzPz2y8i0XY2AHojXP2LrqxACP+pHred8RcTY5iR4RU/vBqc7tnOvcnvku2jFve/yVYRhGaYy0T+12a/xoLWBoWUm0JiY2cle967t18kuDd0zqj5ZjZAlTW1Y3qg0NLuqa9U9xNkFGdr37yv2m1jPPud3z3MiOeT+JHs4cGW9SKaaK3iN6dxl0puidol8T+bxVxBNS/kX0e6JqfgzUb4iYOMp3vIZxcBCtPa02ap/8U9eVwtTEwIbvanD9tzW4gSvq3eA19W5kqW9onqmhFbUuap/0c7cm/ISQaPeZV7kfxqbWLabWLa/yPuqZN9z/4ClN8WaVYr7odtE3y6CbRazf86PT3xRxK9p1omtFt4r+XLR/4qXKOEu0WKTHe5moYDRuGK8J0dpjZ4uxRa4zv6lptDa4uMH1Xl/vXr5QdLGY2631YngJQ0NLa51bItpAl3TGhXF2+8mamh+pYWqoR/T4Ahc9uJCGVEnmiDCdr5VBV4kWiQ4XAZHMl0QYmm5zhegbomNF1UhGdL1Ij/dfRXq8hnFwEXXOeK9by/iab2oBY5NobSSO1l6+PDa2C6RLeiVRm29osallVeNcx5EStTW86Da+dVqc5dhIzTe1rOY495QYW/f8z8ebV4qQsWFEmE+xukH0VZFGMDR4zBwD8NMn2mkTVSMZkRmbUR0Md077vNvI+Jqamm9osaktbzgQrX0zNrWLYsn7wVvU1NTQYlNbeuSo1te6kSWTaAyHRQ9nrs5ramjvfDeyYy5dt0oSMrbPic4W/VWR+ozokyIdQ2NxMjPCdEU1bUyT7tsEUTWSEZmxGdVB1DH1Rrcx7obmMjUdW/uWRGuXJYztgjrXe0WdfO+bmm9sNS666wjXf3PtcyPdZ7S7J0/Jb2pozzwX7Zj7H3ERK4VvbF+PX48SlYspoi+KiOYQXdGFomrFjM2oHqKOyVvcWjG2VxhaLDG1aEkcrV2HkXmmdlFdVi+JuQ3cVCtRHWamGjW1kTvE1G6U998VI9srkRpjaPlMrbvNud1zXLR9zo/dvae/OS5mJQgZGzOl5eSNIiYp3i4qp2m+FpixGdWBW9H8xqj9qKfdKj9aS5ga0dqdDa7vVonWLhUz2x+tjZpaVufXut7La2U7MbQlCVO7qcYNfUeM7BGJ1Pabmm9sCVNDu9okYpsz4HaczBKDShEytv3jgMYrMGMzqoOo/fiZ0fJJ/a4zEK2JoWUnDCRaG7hDTO1aMbP90ZpnahfWjkrMbeCGA1HbWFN7W45ILYex9Ygek213nMyaqUphxlYcZmxGdTDYccw73SrG18LRGtofrV0ihpaN1gKmljW2Gtd7aY0bXnzA1AbvyWdqvqF5pqZ6ar6Lts3/bFzUSmDGVhxmbEZ1EHVM/RRP4ggZWjZau6t+NFq7RqO1HKZ2Yc2oMLerj3B9RGqpTS1haKqnmECYg/FUimozNtbGTRJRxmL+JWKdiC49y0w4Zh7xPl3E+F8xpDW2WtFxIvJDx4vqReWiRsRawGbRXFGraJaoXHeqMBZ6koi0qa8TRdR7OWBxNuO4nAPSpuzUT7nSNyBqn3K52+gZG/eBxqYWLa13Q4vrXd8tRGsYWQFTE7143uHuF+dJpHa3GNnucZgaemIuEwj3xEWtBJU2Nhr9e0W/L+J2qg+JQotzeZLJ+0Vs9wciblvyb73iP4TxCCgW/F4qopyXiJhxpVHkYoGIpSj8+8SrRbrmjmUnzNB+RcRTWmjEaUgaG/v7kzuYGEtcLhL5+V0jorwsiRnPrDD7cjykT/6aPuJv1g2yVIfjLhbMmOPj9j/uIKGOuDZIW5fp/KOIoRGMtVj4IeJaOEdE/fnrJakfzit5syh9osgYD9HyyWu5of2V0Vr9gWjtKqK1wqa27yuHu+fOrXF9a8TIHi2x+5lV66gebXNR95yne3oWFvXooyKotLFxgXIB86QSDIHbkd4hSsKv9y0iloSw7u1KkS70pTFQNr7DLHiPaAyYU+iXHiP8OxF5cnykx7Ycn4o0SI9taFyfFhWKAjMiNTb2xViBaAxD0dvLkvnxns8oC/tTNiLGtBBBYYr5jieZxz+I3iJKw2kizJI65nzpteCnzWd8xzYYKPcAp4V7ajF29uW8FUofk3uXyCgFnnA7snzSbrc6aWpetHazmNrFmFl+U3vxy2Jq59S4/nViZI+Nx9RQbGy7WsXY2nrdfQvTXqDFUmljYyEudyNo2jT6U0VJ6OpgFNo4zxfRTfyIiHsy+cxvBLzSeP9QlKRFpHn5+/gRFA2ICMf/ngZFvseIcpERqbGRxt+KMO/zROyv6Wk0Rd2ynV9+RNmIitLcC4xJYySar4o0SVuPyT8eRN7UO+c4H0TI/PBQP37apKlGzXv/GDAnjrfQxBaLtD8mIn2/fJSLNLTsSbNjW/b5U9EbREYxRP/WPDFaNvF51znW1LLR2p31rv92idauFDPTaK2AqfXlNbWksYUMDcWmhnpEu+e4wfvn84tXCULGxqLaclGqsX1BdIZIy8Zn7KtGwXsaVrJbS7eUbWkoGAf7asPBfP5G9BciJmS4r5XvSI/t2J70iVxyrbfLiNRgaHx0zXhyCeVhf03vy6K/Fn1KxJ0cdIXZhn3YDlEmynqCKBdEkJgt6ep+pEFapEnkR9cXg2W8T49Vj4c6ZXvG+0KwthADod7ZnvNE2hgp6fLDwo8H3V8+4zu20W2pi3zGyf5E4Mn0eU/dEeUiuqB0dfmOOuF7joF9Py4yimFg5fT5UcfEyLWPNbVoSZ0bvKPe9d4YTxYQreUzNbqfa5Om5hubb2gpTU315FyJ2ubRGCtByNiOFvFLW6xCFGNsNEgaAKLbQsNlP8rH+w+KGMyeLWLBL11aP1/GiDABjIWGQTrkh7EwyJ6cKKCrS3o0Kq0D9qOxYhihSCEj8iMnyodxaF4YJhFj8tFMGNRvizAHPy/KymehiQXyp/tJ42Zbf/vTRcluM+OZjK3xo+DnwXseGZV8vBJlxIDVCDkGTIXHWDHZkoTP+I7j1fOJKXKuQk84wTT58SFdysF+6AOiUK+AH1TSJ10MmX3YlzzoKhtpGeqY9iG3duJ+Q1MN31nn+m8TU7tCDO38NJHa/LGmlrMLGjIzFDA01V4mEOZxQVQC39hU54po7MWIaCg0YF1KxMZ2vLIP29O409yx8EciGhINgjQwICYcCj0iCcMjIiEv3Zd0QuXMiHxj07JSh+8TFYL6YOxL80LkRZcrCZMSjPtRD+TJPtRzobrA4IhMKZNfF/wY+DBLrD8mbJP2GDAszJbtuVZ+R5ScGcZ0Oe9qUFy/5IHpF4Ko29+HNIiiS5mweH0SLZtyntuAsR0wtf3R2g1JQ0tpamMMzTe1EoxtR4tzT3BrVdvGuMjlJmRsXEhc8MWIgX+iiCSlGhuiXHSx0jzIkXEoGoKfTzFRLg0T06AM7E9kRJSTjNoyoqSx8TdRSFqIboiqyIP9OWbynSkKQQTNjDGNO1+31Yc86Jrq8VAffybywej03FMGzmPasVxmreeJco1/UV4MW9Omi5w01nzwI8k+ej2Qlk0mpCVaftSdbh3ja7GxLa1zIxqtfU2M7II8pkb3c9ymFjAzhKGpmBnd0bbHLVpUiYczhoyNi6lY0bhDs52lGhtdIsZc0q5tYhmJNiTdt9glAyylSDb05O1sGZFvbGyDSRU7wM2Yl3+8lJ3xqHwU++RhBva1rOTFUhn/RyJ57nmf85+BFwGmSndZIy7STZpqGog6MTfS4EeAR3jlGvIwfKJlE+/nf4COGltdNlobWlzner8p0VoBU+tfn8/UfEPLZWooYGrIN7adrRKxte6Luhfwy11u8kVsXExpxeOVyhmxsR1dyzSwFIZGy/7sS2MmYigFJhS0QZIOj//2yYh8Y+M9TwkuBQbNte7VeNIu62G8i+iKZTKMH1J/RK1+d40Fu5xH6hSzZ5zSH8vjR4O89dzoNlwT48G/psib+ixlpp0IT+uaMtI9TTMk8frGrV94RLRswv+6FaOmdiBaE1O7TMzs/GJMrYxjar6poW7RwxK1bVsQMoTxkrwIeWWglgbDUoS0YvV4KEIq1dgo08miNLAejPR1X9JhRo8FwbrgF2F2iG6jLyYlVEw+aFkpQzLSyIj8xlZKZKhQD9SHpoXy/XgxbkUUxsQGBoQR6Q8LBsb+REp034meWXRM2tSLljVpDMw4Ml7GdjquRVpER9QfC445h8VAXft1xPmnnv1zket8+OeCGWWOkXQQ0RvXmZGPqGvGidHyhkHXPvqAyGhJrRu8I47WcpjaLzC1DRXqfqKkqakYZ9s25xNx0cuJb2xchLwWeyHnoxRjQ7zPd0eBTzLqpIHSOGlcxYiyqTkiDIOlHD4ZEdvyPXmwir7U7hFjajRczZOGm2twnXypR7qsbKf7JcXnfE99MFtJXZC2Glvyf9US4TH54y/54JVj5zhJi8WyGN2HRYx9JWdjk/A/Lfzzgfjbr+s0ogxafsRnoeEOwyfqnJJxq+iGjkZrw9IF7btVTO1SorUDhqam9ty5tQW6n76phQxNVYShZdXs3F4xtgfbuLDLTcjYXusFuoj3dKXSQHpc9NoA9FjGKxo142f+2GZGpHnR8IiOSoVID9MgL9LjPLxN5MOMLdEnxqNdZISBqVlQp7znVQ1Bj0G3533I2ICJE2ZlSQP5++m+anTkwfn8Y1Gu5/ax5IXtdX/Op5ZnPKIOmIE18hG1T/6sWy/GtrTWjdwl0drtYmrXYmo5up95IzU/SstlbAFDUwUNzdMT2QmE1XHRy8nBbGxp/+ELyw98Y+NXnkY8XmEezIzmMjaMj0W4pULdEFXlqxuidO0qIuqG7eiK0k1mDJChAwyRRdx08TBbttXzisiDYwoZm8KQAgP25KEmpl1cTQdRLzpRE1riw7pB39g4Hxh4sn6LFceTHPM0kkTtk77h1te7SIxteHGt67tFjO2rYmoXBCK11KYWMjQUMDNVyMjGSCK2R1vdyPbWR+Oil5NDwdgYiyNdPQYaEcsiaMTjEQtGk+NnGZEaG4032VUtBtL3653z4BsF40nkRX3wPa+YKWvzCnUHmUjA+DTKIw/MgeMqBOXix4JboTB29qd+EabG35gV54jyYIg+mD2fsx2vLLthbC9Zv8WKCDG0ENjwiZZNuNutqXORRGsDRGvXjO2CFm9quYwtYGaqoJGpxNBUu1pctK3leddzerlnhQ4FY2OQnMhC96UxF3ODeTFkRGps5MNasWKXYShM0GCOWm6OwV+nhiGoYSPOEwP6acGgKCNpF2NsPowfkg4/HjwFhR8NyqxjXxgXs7n+XR1MSGi5+X483XWjGNyKj7whWtqwl39mvD9au0QMLY7WePTQqKktGGekhkKGhkJmpvJMDfWIdsrn2xaU+x+hHArGRh7+WBXGE1p6Ug4yIjU2NaNSH93OU0s0LSIh6kmXY2CWmKZGXNQHBlLMejmiPzWYUo0tCVET93hy3KSLyINb0xQW0vrHRXeb292MShMtnz09Wlr3kltWI9Fareu9+kC0NtbU3lr+SK2gqaGEsaE9bW74wTl0D8rJoWBsRBV0CXVch9dS/x9rodt2MiJttHo8oSeMFIL1atynyXGSDpENY1NKcmKhlHz82cl8xsbkAcaUdg0d5qZp8kp9MLanMOmj51K/L2U2kyiw1Gj49Um0bMrbXad0Q++scX03i6ldPBqtHeh+jtfUUMLQVEEj8xUwNbRX0tzexjqrcnIoGBtwg7kOaOfLJx/kh5nQ5aJLGFrGkRH5xsZxEZUU+1gpbkmijJoOZfef4JKMQtmW5RZpYdxLu+daTt/YmBBhHI57Q4kMWWCdtr6oF2aL1ZQpm7+Ymqjyn0X6Q8N2LHwu9um+3InBujwmDOzpumkYXjbxE66LsTUxtStHo7WsqX1BTG1ThSI1FDQyVcDMfD2ZvQOhPT6EcnGoGBuRFvdSamPTQe6091YSHbCei/Ih6oQZQn/sCDIi39gQDZgn6XKsaaCLiOlonVDmC0T+wDj5kqbfFeWhlmm6otQb3T+tC5Q0NqIz0sPQyAOxT5quKt1lTFfrOBmxAedYf2gYj6NOqc+0USHGTPmpW9KnfJUaXjh0GFk64WKMrfdGMbWLxNS+9OZRU9uY1tRChqYq1tBQwMjGqEnK1eJGtrc8FB9CuThUjA3o7rDWSRsTafDKDF8+GBxn7RX1wPaIJRbMPiajtozINzYtL11JjIhHKuWC+zS5c4ByqWEhyhwqI0/2oL50O/Jg+UfySRo+1C3b+tEaShobkKdvPqRP9zjf+kGOgTKwraZNfXAd+WDA/lNM2I73DBkQKeaDiQr2oY54pezkl3bB9uuXkbvqVroOMbav146aGt3P1KaWy9gChoZKHVMbIzG2h5vdyLbmZ92u0wtN9RfDwWRs2hhLNTbgNhzf3GgcHB8Nil98Bvq5bYmuI0+noLtD+XxTo4x0tUL/qDojUmOjnEQ5WmbKT7kZ2+JmcgyCRsysLd0p7lIgbeqCfEiDsua6o4Sohe1Jm20R5eQpJJSDhk76RKV0xTlGvieSQkRVmBn7hYwNmHn1zY0IifwYz+MuCEyf641ZZoyQqNY3Nd4T+YUiMa4j8iRNPV7dlwW+RK6cB9LmGPhh4hFVbK+mxrb8yNjC3DQMLW7Y6aQbun+iYNymhhKGljW1kIn5CplYUmJqiJnR7mYXPbCA+/fKxaEUsQGDzSwvwDB8Q6CxkDfp8jcNn+PmM95rI+JvurS56iAjUmMjTUyMzzQ/5KfL3xgef/Oq5eFz9qEhJ7u7Poxd8Wh03Q9xDHosfvqUh+95pWuLuWJubJPL2Oj+Yla+ubGtpsffnD/S8I+Bz8mfbfJFqXzHvr4Zkj51pCbM93pMbMffWg5MDRM0CuHuWVjff1v9M4OXiamdU8yYWsjMUMDQVEEz85U0MV+xofl6vFWMbS43C5cLZsNoqFxE/EryWm5jo0Fp2jSgULeLqIZGwoWOeF+KsQFGoWuptKFoo+I95fA/Q5QPo2HQO9etQkDkxXakQfqMGwE3eFOPlLtQXpgD9UCkls/UgK6fRqFqyqpk+rxSBkyBxyIxs8o+1CfHxzahMTQG9TmOZB6avsr/XM09zTPWOI9EmaSv5fDTStYR7zE9zh1jd6FJHCPJQOeUtt5rj4xe+GLdwT2mFtJeMbYdrfqfkcoBERsXEI2BC4rXchubdtdImws2V8TmX/S8L9XYFEybZR9qJOSN8fA34rhpoBgUEQ6PpS5kNBkR23MspEXEpdC1pbtJPqRL+poX22peNPJQHeSDtWHMEGoayePg+PgMg9InhPBPaTA1NQuit1yTA5gH43/UA+mHys9xkQ/nhkcuFbMImnFBFhdzDIXS52/G55J3NBj5ePnmmvePXNHgBio1poaCZqYKGVlSAVND2ZnR5jvjQykHjCNhZEQpqjRPrE0Lg8iM02jaNLrQ4DeG4peD92ln0ArBuBqmxWA8DYbbhFhkigmwhIJFz2lv1WH2lWPQMiZvuWIZBbdC8eBLusREgIjJCSYjML9Sj4u8iXZZjsKjizgOupHcwkTEmBxcJ59izy31wOA9ZcW0SZ98+IGg/ohYcz3pNw1Eh9Q39U79kz71w/gg6XOecv3jGSMf+26ccaHrFkN7tAJjaihoZqqQifkKmJmvJ1swtj3OwvPxUIknEeeC81Spc/VqHAdlr3Q+r+b5OHTp3XjqR4d2LfyJ+6+Fzj0yX8wol6mFzAwFzAwFjSypkJmpAkam6hGJqQ3L+967Z1/nFtnFYBhGgqcvOW7qy1varhzaPrfPPSUGt5OoLY2poYCpoaCRqUJG5ithZKpu0eOy/yPNbuDexs3PdpxQ7NiMYRivN55d0tzct7W13e2UaO1Jid568hlbwMxUQTNThYzMV8LMVI/Jd2Jq/fc19fxyw2zGUAzDMNLz/Lrmdw18b85W932J3B6nS5rS2Ip9SscrFDA0ic6YJBi6v+kHL29uPPsjxT3RwTAMYyz7NjV/fOiBtsfdXjG4R9XgEmamChpZUkkj85UwtF3y2d5WN3h/4wsv3zP7/B8umlXOOwwMw3g98+MPH3P4S3e3nDPwQOsz7ikxuIcD5lbOSO0hERHatqbh3i2NN/3ft45N+6x/wzCM4vj5TY1H921puXZoe9uA2yvR287Y0FJFayEzU8WGxsTAHklrV4vru7dx3TPLZ6f9d3OGYRjj42cdLXMHtjZ3uV0SuT3BxEI+YwsZma/Y1B6Tbb/f6vr/s+nBX64+iWdzGYZhvPrsW9eYGbiv+Xvu+2Juj4nJFW1sYmi7ZRvpdg7e1/jULzfN5h5AW2hrGMZrz0ubmz85dH/L3mz09ohGbyEj85SdGGhzQw80PdN7d+MXH/vM5EKPoDYMw3h1wZh6v9v0pcEHW57jnxkzThY0tIdET7a54W1NA71bZl/339eewI3JhmEYBy//c/3xM/u3NF0/vL15CANzD4vB8dw0jO4JieYeanF9WxtX/nT5ScknjBqGYRzcPN/RuKBva1OXdDVfcj0tbviBpoGBrY1bXug6kUfBGIZhVC/P3d4y88U1J/7WC53Naf+JiGEYhmEYhmEYhmEYhmEYhmEYhmEYhmEYhmEYhmEYhmEYhmEYhmEYhmEYhmEYhmEYhmEYhmEYhmEYhmEYhmEYhmEYhmEYhmEYuTjssP8HMKRoPeB+H74AAAAASUVORK5CYII=;" vertex="1" parent="1">
          <mxGeometry x="636.51" y="520" width="116.98" height="40" as="geometry" />
        </mxCell>
        <mxCell id="qe2jWZ_nReYfbDTBb2L2-33" value="Firebase Authentication" style="text;html=1;align=center;verticalAlign=middle;resizable=0;points=[];autosize=1;strokeColor=none;fillColor=none;" vertex="1" parent="1">
          <mxGeometry x="625" y="560" width="140" height="20" as="geometry" />
        </mxCell>
        <mxCell id="qe2jWZ_nReYfbDTBb2L2-34" value="" style="shape=image;verticalLabelPosition=bottom;labelBackgroundColor=default;verticalAlign=top;aspect=fixed;imageAspect=0;image=data:image/png,iVBORw0KGgoAAAANSUhEUgAAATYAAABqCAYAAAA2h32RAAAAAXNSR0IArs4c6QAAAARnQU1BAACxjwv8YQUAAAAJcEhZcwAAFxEAABcRAcom8z8AABySSURBVHhe7Z0JnF1VfcdpbVVgtiRkISEGypJZs6IgtVL8+KhF27rX2larbWlrta1dQEUbVgGRTWQXCGSZmWSyLxYxJS0CSWZIICCBUPSjXVwAQQKzzz39f9/cf3Lmct579715D/LC//v5/D7vzXv3nnPuuff83v8s985hhmEYhmEYhmEYhmEYhmEYhmEYhmEYhmEYhmEYhmEYhmEYhmEYhmEYhmEYhmEYhmEYhmEYhmEYhmEYhmEYhmEYhmEYhmEYAaKNH5wVffc9zfGfhmEY1U20aUFbtP7E56NvnzgcrZ37gfhjwzCM6mV45cxz3XemO7d+motWzvpBtPdzb4q/MgzDqE6iFTNvc5tmONcxzblvH+Oirtl/H39lGIZRnbgV07e69UePGtvqqRK1zfyZu/f0hvhrwzCM6iLa/J43RR3Tf+RWx8bWPlWitulibidcHG9iGIZRXUSdJx0XdRw94FaKqXWIqaGuKS5aNWNftOHUGfFmhmEY1UPUNesMt0aitc7Y1DqmjGozEwnH3RRvZhiGUT24FTPOdpvohiaMbcVkidqmD7r1CxvjTQ3DMKqDqGP6VQeMLTa19smj2ihd0s5ZXfGmhmEY1UHUefQGt4HxtYSpoY6jnFsjXdKNc06JN38F0fq5Z0ZbGrujVY2Xxx8ZhmG8djjnfkWM7XG3Jo7W2n1jE1ND649y0YqZ/x7vMgZ37+k1sv9P3OYG5zZLdLf6pN+NvzIMw3htiNa1To3ap73ILOiYSE1NDXVMEnObKqbV9ArTcitmfcFtku+XibGtbnCS1kOYZfy1YRjGq0+0cubJrkuitc5ApJaVmBZaO8lFHTN2LXLuV+NdD4seOHNi1Dn1WbdSTA1jQ+tlu5XHfzTexDAM49UnWjH9Y26DGFs+U0PLJ45OJKw86U/iXcUU3/LVbLS21DO2VfVigFP2uJ6zfz3eLBXDO8/6TLTnrMujnR+eHH9kGIZRGmJsi9xGNbY8poZWTRDTmvZ0dr/N75gcdU7Z5zrrY1PjNdaGCW6489i/zGaQgpFdma+7H5/m3HOnuajnlBvjjw3DMEpDjGqZ20A3NIep+ca2bIJz6ya64ZWzPz2y8i0XY2AHojXP2LrqxACP+pHred8RcTY5iR4RU/vBqc7tnOvcnvku2jFve/yVYRhGaYy0T+12a/xoLWBoWUm0JiY2cle967t18kuDd0zqj5ZjZAlTW1Y3qg0NLuqa9U9xNkFGdr37yv2m1jPPud3z3MiOeT+JHs4cGW9SKaaK3iN6dxl0puidol8T+bxVxBNS/kX0e6JqfgzUb4iYOMp3vIZxcBCtPa02ap/8U9eVwtTEwIbvanD9tzW4gSvq3eA19W5kqW9onqmhFbUuap/0c7cm/ISQaPeZV7kfxqbWLabWLa/yPuqZN9z/4ClN8WaVYr7odtE3y6CbRazf86PT3xRxK9p1omtFt4r+XLR/4qXKOEu0WKTHe5moYDRuGK8J0dpjZ4uxRa4zv6lptDa4uMH1Xl/vXr5QdLGY2631YngJQ0NLa51bItpAl3TGhXF2+8mamh+pYWqoR/T4Ahc9uJCGVEnmiDCdr5VBV4kWiQ4XAZHMl0QYmm5zhegbomNF1UhGdL1Ij/dfRXq8hnFwEXXOeK9by/iab2oBY5NobSSO1l6+PDa2C6RLeiVRm29osallVeNcx5EStTW86Da+dVqc5dhIzTe1rOY495QYW/f8z8ebV4qQsWFEmE+xukH0VZFGMDR4zBwD8NMn2mkTVSMZkRmbUR0Md077vNvI+Jqamm9osaktbzgQrX0zNrWLYsn7wVvU1NTQYlNbeuSo1te6kSWTaAyHRQ9nrs5ramjvfDeyYy5dt0oSMrbPic4W/VWR+ozokyIdQ2NxMjPCdEU1bUyT7tsEUTWSEZmxGdVB1DH1Rrcx7obmMjUdW/uWRGuXJYztgjrXe0WdfO+bmm9sNS666wjXf3PtcyPdZ7S7J0/Jb2pozzwX7Zj7H3ERK4VvbF+PX48SlYspoi+KiOYQXdGFomrFjM2oHqKOyVvcWjG2VxhaLDG1aEkcrV2HkXmmdlFdVi+JuQ3cVCtRHWamGjW1kTvE1G6U998VI9srkRpjaPlMrbvNud1zXLR9zo/dvae/OS5mJQgZGzOl5eSNIiYp3i4qp2m+FpixGdWBW9H8xqj9qKfdKj9aS5ga0dqdDa7vVonWLhUz2x+tjZpaVufXut7La2U7MbQlCVO7qcYNfUeM7BGJ1Pabmm9sCVNDu9okYpsz4HaczBKDShEytv3jgMYrMGMzqoOo/fiZ0fJJ/a4zEK2JoWUnDCRaG7hDTO1aMbP90ZpnahfWjkrMbeCGA1HbWFN7W45ILYex9Ygek213nMyaqUphxlYcZmxGdTDYccw73SrG18LRGtofrV0ihpaN1gKmljW2Gtd7aY0bXnzA1AbvyWdqvqF5pqZ6ar6Lts3/bFzUSmDGVhxmbEZ1EHVM/RRP4ggZWjZau6t+NFq7RqO1HKZ2Yc2oMLerj3B9RGqpTS1haKqnmECYg/FUimozNtbGTRJRxmL+JWKdiC49y0w4Zh7xPl3E+F8xpDW2WtFxIvJDx4vqReWiRsRawGbRXFGraJaoXHeqMBZ6koi0qa8TRdR7OWBxNuO4nAPSpuzUT7nSNyBqn3K52+gZG/eBxqYWLa13Q4vrXd8tRGsYWQFTE7143uHuF+dJpHa3GNnucZgaemIuEwj3xEWtBJU2Nhr9e0W/L+J2qg+JQotzeZLJ+0Vs9wciblvyb73iP4TxCCgW/F4qopyXiJhxpVHkYoGIpSj8+8SrRbrmjmUnzNB+RcRTWmjEaUgaG/v7kzuYGEtcLhL5+V0jorwsiRnPrDD7cjykT/6aPuJv1g2yVIfjLhbMmOPj9j/uIKGOuDZIW5fp/KOIoRGMtVj4IeJaOEdE/fnrJakfzit5syh9osgYD9HyyWu5of2V0Vr9gWjtKqK1wqa27yuHu+fOrXF9a8TIHi2x+5lV66gebXNR95yne3oWFvXooyKotLFxgXIB86QSDIHbkd4hSsKv9y0iloSw7u1KkS70pTFQNr7DLHiPaAyYU+iXHiP8OxF5cnykx7Ycn4o0SI9taFyfFhWKAjMiNTb2xViBaAxD0dvLkvnxns8oC/tTNiLGtBBBYYr5jieZxz+I3iJKw2kizJI65nzpteCnzWd8xzYYKPcAp4V7ajF29uW8FUofk3uXyCgFnnA7snzSbrc6aWpetHazmNrFmFl+U3vxy2Jq59S4/nViZI+Nx9RQbGy7WsXY2nrdfQvTXqDFUmljYyEudyNo2jT6U0VJ6OpgFNo4zxfRTfyIiHsy+cxvBLzSeP9QlKRFpHn5+/gRFA2ICMf/ngZFvseIcpERqbGRxt+KMO/zROyv6Wk0Rd2ynV9+RNmIitLcC4xJYySar4o0SVuPyT8eRN7UO+c4H0TI/PBQP37apKlGzXv/GDAnjrfQxBaLtD8mIn2/fJSLNLTsSbNjW/b5U9EbREYxRP/WPDFaNvF51znW1LLR2p31rv92idauFDPTaK2AqfXlNbWksYUMDcWmhnpEu+e4wfvn84tXCULGxqLaclGqsX1BdIZIy8Zn7KtGwXsaVrJbS7eUbWkoGAf7asPBfP5G9BciJmS4r5XvSI/t2J70iVxyrbfLiNRgaHx0zXhyCeVhf03vy6K/Fn1KxJ0cdIXZhn3YDlEmynqCKBdEkJgt6ep+pEFapEnkR9cXg2W8T49Vj4c6ZXvG+0KwthADod7ZnvNE2hgp6fLDwo8H3V8+4zu20W2pi3zGyf5E4Mn0eU/dEeUiuqB0dfmOOuF7joF9Py4yimFg5fT5UcfEyLWPNbVoSZ0bvKPe9d4YTxYQreUzNbqfa5Om5hubb2gpTU315FyJ2ubRGCtByNiOFvFLW6xCFGNsNEgaAKLbQsNlP8rH+w+KGMyeLWLBL11aP1/GiDABjIWGQTrkh7EwyJ6cKKCrS3o0Kq0D9qOxYhihSCEj8iMnyodxaF4YJhFj8tFMGNRvizAHPy/KymehiQXyp/tJ42Zbf/vTRcluM+OZjK3xo+DnwXseGZV8vBJlxIDVCDkGTIXHWDHZkoTP+I7j1fOJKXKuQk84wTT58SFdysF+6AOiUK+AH1TSJ10MmX3YlzzoKhtpGeqY9iG3duJ+Q1MN31nn+m8TU7tCDO38NJHa/LGmlrMLGjIzFDA01V4mEOZxQVQC39hU54po7MWIaCg0YF1KxMZ2vLIP29O409yx8EciGhINgjQwICYcCj0iCcMjIiEv3Zd0QuXMiHxj07JSh+8TFYL6YOxL80LkRZcrCZMSjPtRD+TJPtRzobrA4IhMKZNfF/wY+DBLrD8mbJP2GDAszJbtuVZ+R5ScGcZ0Oe9qUFy/5IHpF4Ko29+HNIiiS5mweH0SLZtyntuAsR0wtf3R2g1JQ0tpamMMzTe1EoxtR4tzT3BrVdvGuMjlJmRsXEhc8MWIgX+iiCSlGhuiXHSx0jzIkXEoGoKfTzFRLg0T06AM7E9kRJSTjNoyoqSx8TdRSFqIboiqyIP9OWbynSkKQQTNjDGNO1+31Yc86Jrq8VAffybywej03FMGzmPasVxmreeJco1/UV4MW9Omi5w01nzwI8k+ej2Qlk0mpCVaftSdbh3ja7GxLa1zIxqtfU2M7II8pkb3c9ymFjAzhKGpmBnd0bbHLVpUiYczhoyNi6lY0bhDs52lGhtdIsZc0q5tYhmJNiTdt9glAyylSDb05O1sGZFvbGyDSRU7wM2Yl3+8lJ3xqHwU++RhBva1rOTFUhn/RyJ57nmf85+BFwGmSndZIy7STZpqGog6MTfS4EeAR3jlGvIwfKJlE+/nf4COGltdNlobWlzner8p0VoBU+tfn8/UfEPLZWooYGrIN7adrRKxte6Luhfwy11u8kVsXExpxeOVyhmxsR1dyzSwFIZGy/7sS2MmYigFJhS0QZIOj//2yYh8Y+M9TwkuBQbNte7VeNIu62G8i+iKZTKMH1J/RK1+d40Fu5xH6hSzZ5zSH8vjR4O89dzoNlwT48G/psib+ixlpp0IT+uaMtI9TTMk8frGrV94RLRswv+6FaOmdiBaE1O7TMzs/GJMrYxjar6poW7RwxK1bVsQMoTxkrwIeWWglgbDUoS0YvV4KEIq1dgo08miNLAejPR1X9JhRo8FwbrgF2F2iG6jLyYlVEw+aFkpQzLSyIj8xlZKZKhQD9SHpoXy/XgxbkUUxsQGBoQR6Q8LBsb+REp034meWXRM2tSLljVpDMw4Ml7GdjquRVpER9QfC445h8VAXft1xPmnnv1zket8+OeCGWWOkXQQ0RvXmZGPqGvGidHyhkHXPvqAyGhJrRu8I47WcpjaLzC1DRXqfqKkqakYZ9s25xNx0cuJb2xchLwWeyHnoxRjQ7zPd0eBTzLqpIHSOGlcxYiyqTkiDIOlHD4ZEdvyPXmwir7U7hFjajRczZOGm2twnXypR7qsbKf7JcXnfE99MFtJXZC2Glvyf9US4TH54y/54JVj5zhJi8WyGN2HRYx9JWdjk/A/Lfzzgfjbr+s0ogxafsRnoeEOwyfqnJJxq+iGjkZrw9IF7btVTO1SorUDhqam9ty5tQW6n76phQxNVYShZdXs3F4xtgfbuLDLTcjYXusFuoj3dKXSQHpc9NoA9FjGKxo142f+2GZGpHnR8IiOSoVID9MgL9LjPLxN5MOMLdEnxqNdZISBqVlQp7znVQ1Bj0G3533I2ICJE2ZlSQP5++m+anTkwfn8Y1Gu5/ax5IXtdX/Op5ZnPKIOmIE18hG1T/6sWy/GtrTWjdwl0drtYmrXYmo5up95IzU/SstlbAFDUwUNzdMT2QmE1XHRy8nBbGxp/+ELyw98Y+NXnkY8XmEezIzmMjaMj0W4pULdEFXlqxuidO0qIuqG7eiK0k1mDJChAwyRRdx08TBbttXzisiDYwoZm8KQAgP25KEmpl1cTQdRLzpRE1riw7pB39g4Hxh4sn6LFceTHPM0kkTtk77h1te7SIxteHGt67tFjO2rYmoXBCK11KYWMjQUMDNVyMjGSCK2R1vdyPbWR+Oil5NDwdgYiyNdPQYaEcsiaMTjEQtGk+NnGZEaG4032VUtBtL3653z4BsF40nkRX3wPa+YKWvzCnUHmUjA+DTKIw/MgeMqBOXix4JboTB29qd+EabG35gV54jyYIg+mD2fsx2vLLthbC9Zv8WKCDG0ENjwiZZNuNutqXORRGsDRGvXjO2CFm9quYwtYGaqoJGpxNBUu1pctK3leddzerlnhQ4FY2OQnMhC96UxF3ODeTFkRGps5MNasWKXYShM0GCOWm6OwV+nhiGoYSPOEwP6acGgKCNpF2NsPowfkg4/HjwFhR8NyqxjXxgXs7n+XR1MSGi5+X483XWjGNyKj7whWtqwl39mvD9au0QMLY7WePTQqKktGGekhkKGhkJmpvJMDfWIdsrn2xaU+x+hHArGRh7+WBXGE1p6Ug4yIjU2NaNSH93OU0s0LSIh6kmXY2CWmKZGXNQHBlLMejmiPzWYUo0tCVET93hy3KSLyINb0xQW0vrHRXeb292MShMtnz09Wlr3kltWI9Fareu9+kC0NtbU3lr+SK2gqaGEsaE9bW74wTl0D8rJoWBsRBV0CXVch9dS/x9rodt2MiJttHo8oSeMFIL1atynyXGSDpENY1NKcmKhlHz82cl8xsbkAcaUdg0d5qZp8kp9MLanMOmj51K/L2U2kyiw1Gj49Um0bMrbXad0Q++scX03i6ldPBqtHeh+jtfUUMLQVEEj8xUwNbRX0tzexjqrcnIoGBtwg7kOaOfLJx/kh5nQ5aJLGFrGkRH5xsZxEZUU+1gpbkmijJoOZfef4JKMQtmW5RZpYdxLu+daTt/YmBBhHI57Q4kMWWCdtr6oF2aL1ZQpm7+Ymqjyn0X6Q8N2LHwu9um+3InBujwmDOzpumkYXjbxE66LsTUxtStHo7WsqX1BTG1ThSI1FDQyVcDMfD2ZvQOhPT6EcnGoGBuRFvdSamPTQe6091YSHbCei/Ih6oQZQn/sCDIi39gQDZgn6XKsaaCLiOlonVDmC0T+wDj5kqbfFeWhlmm6otQb3T+tC5Q0NqIz0sPQyAOxT5quKt1lTFfrOBmxAedYf2gYj6NOqc+0USHGTPmpW9KnfJUaXjh0GFk64WKMrfdGMbWLxNS+9OZRU9uY1tRChqYq1tBQwMjGqEnK1eJGtrc8FB9CuThUjA3o7rDWSRsTafDKDF8+GBxn7RX1wPaIJRbMPiajtozINzYtL11JjIhHKuWC+zS5c4ByqWEhyhwqI0/2oL50O/Jg+UfySRo+1C3b+tEaShobkKdvPqRP9zjf+kGOgTKwraZNfXAd+WDA/lNM2I73DBkQKeaDiQr2oY54pezkl3bB9uuXkbvqVroOMbav146aGt3P1KaWy9gChoZKHVMbIzG2h5vdyLbmZ92u0wtN9RfDwWRs2hhLNTbgNhzf3GgcHB8Nil98Bvq5bYmuI0+noLtD+XxTo4x0tUL/qDojUmOjnEQ5WmbKT7kZ2+JmcgyCRsysLd0p7lIgbeqCfEiDsua6o4Sohe1Jm20R5eQpJJSDhk76RKV0xTlGvieSQkRVmBn7hYwNmHn1zY0IifwYz+MuCEyf641ZZoyQqNY3Nd4T+YUiMa4j8iRNPV7dlwW+RK6cB9LmGPhh4hFVbK+mxrb8yNjC3DQMLW7Y6aQbun+iYNymhhKGljW1kIn5CplYUmJqiJnR7mYXPbCA+/fKxaEUsQGDzSwvwDB8Q6CxkDfp8jcNn+PmM95rI+JvurS56iAjUmMjTUyMzzQ/5KfL3xgef/Oq5eFz9qEhJ7u7Poxd8Wh03Q9xDHosfvqUh+95pWuLuWJubJPL2Oj+Yla+ubGtpsffnD/S8I+Bz8mfbfJFqXzHvr4Zkj51pCbM93pMbMffWg5MDRM0CuHuWVjff1v9M4OXiamdU8yYWsjMUMDQVEEz85U0MV+xofl6vFWMbS43C5cLZsNoqFxE/EryWm5jo0Fp2jSgULeLqIZGwoWOeF+KsQFGoWuptKFoo+I95fA/Q5QPo2HQO9etQkDkxXakQfqMGwE3eFOPlLtQXpgD9UCkls/UgK6fRqFqyqpk+rxSBkyBxyIxs8o+1CfHxzahMTQG9TmOZB6avsr/XM09zTPWOI9EmaSv5fDTStYR7zE9zh1jd6FJHCPJQOeUtt5rj4xe+GLdwT2mFtJeMbYdrfqfkcoBERsXEI2BC4rXchubdtdImws2V8TmX/S8L9XYFEybZR9qJOSN8fA34rhpoBgUEQ6PpS5kNBkR23MspEXEpdC1pbtJPqRL+poX22peNPJQHeSDtWHMEGoayePg+PgMg9InhPBPaTA1NQuit1yTA5gH43/UA+mHys9xkQ/nhkcuFbMImnFBFhdzDIXS52/G55J3NBj5ePnmmvePXNHgBio1poaCZqYKGVlSAVND2ZnR5jvjQykHjCNhZEQpqjRPrE0Lg8iM02jaNLrQ4DeG4peD92ln0ArBuBqmxWA8DYbbhFhkigmwhIJFz2lv1WH2lWPQMiZvuWIZBbdC8eBLusREgIjJCSYjML9Sj4u8iXZZjsKjizgOupHcwkTEmBxcJ59izy31wOA9ZcW0SZ98+IGg/ohYcz3pNw1Eh9Q39U79kz71w/gg6XOecv3jGSMf+26ccaHrFkN7tAJjaihoZqqQifkKmJmvJ1swtj3OwvPxUIknEeeC81Spc/VqHAdlr3Q+r+b5OHTp3XjqR4d2LfyJ+6+Fzj0yX8wol6mFzAwFzAwFjSypkJmpAkam6hGJqQ3L+967Z1/nFtnFYBhGgqcvOW7qy1varhzaPrfPPSUGt5OoLY2poYCpoaCRqUJG5ithZKpu0eOy/yPNbuDexs3PdpxQ7NiMYRivN55d0tzct7W13e2UaO1Jid568hlbwMxUQTNThYzMV8LMVI/Jd2Jq/fc19fxyw2zGUAzDMNLz/Lrmdw18b85W932J3B6nS5rS2Ip9SscrFDA0ic6YJBi6v+kHL29uPPsjxT3RwTAMYyz7NjV/fOiBtsfdXjG4R9XgEmamChpZUkkj85UwtF3y2d5WN3h/4wsv3zP7/B8umlXOOwwMw3g98+MPH3P4S3e3nDPwQOsz7ikxuIcD5lbOSO0hERHatqbh3i2NN/3ft45N+6x/wzCM4vj5TY1H921puXZoe9uA2yvR287Y0FJFayEzU8WGxsTAHklrV4vru7dx3TPLZ6f9d3OGYRjj42cdLXMHtjZ3uV0SuT3BxEI+YwsZma/Y1B6Tbb/f6vr/s+nBX64+iWdzGYZhvPrsW9eYGbiv+Xvu+2Juj4nJFW1sYmi7ZRvpdg7e1/jULzfN5h5AW2hrGMZrz0ubmz85dH/L3mz09ohGbyEj85SdGGhzQw80PdN7d+MXH/vM5EKPoDYMw3h1wZh6v9v0pcEHW57jnxkzThY0tIdET7a54W1NA71bZl/339eewI3JhmEYBy//c/3xM/u3NF0/vL15CANzD4vB8dw0jO4JieYeanF9WxtX/nT5ScknjBqGYRzcPN/RuKBva1OXdDVfcj0tbviBpoGBrY1bXug6kUfBGIZhVC/P3d4y88U1J/7WC53Naf+JiGEYhmEYhmEYhmEYhmEYhmEYhmEYhmEYhmEYhmEYhmEYhmEYhmEYhmEYhmEYhmEYhmEYhmEYhmEYhmEYhmEYhmEYhmEYhmEYuTjssP8HMKRoPeB+H74AAAAASUVORK5CYII=;" vertex="1" parent="1">
          <mxGeometry x="636.51" y="600" width="116.98" height="40" as="geometry" />
        </mxCell>
        <mxCell id="qe2jWZ_nReYfbDTBb2L2-35" value="Firebase Storage" style="text;html=1;align=center;verticalAlign=middle;resizable=0;points=[];autosize=1;strokeColor=none;fillColor=none;" vertex="1" parent="1">
          <mxGeometry x="640" y="640" width="110" height="20" as="geometry" />
        </mxCell>
      </root>
    </mxGraphModel>
  </diagram>
</mxfile>
